<svg version="1" xmlns="http://www.w3.org/2000/svg" width="800" height="800" viewBox="0 0 600.000000 600.000000"><path d="M298.1 18.7c-.7 4.3-1.7 9.4-2.2 11.3-.7 2.8-6.2 30.9-8.3 42.2-.2 1.5-1.8 9.6-3.5 18s-3.2 16.4-3.5 17.8c-.2 1.4-.7 3.6-1 5-.3 1.4-.8 3.6-1 5-.2 1.4-1.9 9.9-3.6 19-1.8 9.1-3.4 17.4-3.6 18.5-.2 1.1-1.3 6.5-2.3 12-1.1 5.5-2.2 11.1-2.4 12.5-.3 1.4-2.5 12.8-5.1 25.5-2.5 12.6-4.7 24.1-5 25.5-1.4 7.9-5.7 29.8-6.2 31.3-.5 1.7-.7 1.7-1.8-.5-.7-1.2-2.8-6.1-4.8-10.8-2-4.7-6.9-15.9-10.8-25-4-9.1-9.1-21-11.5-26.5-2.3-5.5-8.2-19-13-30-8.1-18.7-18.6-42.9-34.3-79.5l-6.7-15.4-.5 110.9-.5 110.9-6.5-9.2c-3.6-5.1-7.1-10.1-7.8-11-.7-.9-9.6-13.4-19.8-27.7-10.2-14.3-19.2-26.9-20-28-.8-1.1-5.9-8.3-11.4-16-5.4-7.7-10.5-14.8-11.2-15.7-.7-.9-10.1-14.1-20.8-29.2-10.7-15.1-19.6-27.3-19.8-27.1-.1.1 1.4 6.5 3.4 14.1 2 7.7 3.7 14.6 3.9 15.4.4 1.7 7.8 29.9 13 49.5 1.9 7.1 5.5 21.1 8 31 2.5 9.9 6 23.1 7.6 29.3 1.7 6.2 3.2 12 3.4 13 .2.9 1.5 6.2 3 11.7 1.5 5.5 2.9 10.8 3 11.8.2.9.6 2.1.9 2.5.3.5.7 1.9.9 3.3.3 1.3 2.1 8.5 4 15.9 4.2 15.9 7.6 29 8.2 31.6.2 1 2 7.7 3.9 14.9 1.8 7.1 5.2 20 7.4 28.5s5.9 22.7 8.2 31.5c2.3 8.8 4.4 16.7 4.6 17.5 1.6 6.4 3.8 14.8 7.4 28.5 2.3 8.8 4.3 16.7 4.5 17.5.2.8 1 4 1.9 7 1.8 7 10.7 41 11.1 43 .2.8 1.5 5.8 2.9 11s2.6 9.8 2.6 10.2c0 .4 1.9 1.2 4.1 1.8 6.8 1.9 33.1 7.8 37.3 8.4 2.1.4 4.1.8 4.5 1 .3.2 2.9.7 5.6 1 2.8.3 6.1.8 7.5 1.1 1.4.3 6.3 1 11 1.5 4.7.6 10.1 1.3 12 1.5 23.7 3.3 72.8 3.7 100.5 1 7.1-.7 14.9-1.6 17.5-2 1.4-.2 4.8-.6 7.5-1 8.8-1.1 11.8-1.6 19.5-3 4.1-.8 9.1-1.7 11-2 4.9-.8 27.7-6.2 32.1-7.6l3.6-1.1 3.8-14.7c2-8 4.1-16 4.6-17.6 1.2-3.7 20-76.2 20.5-78.9.2-1 .8-3.3 1.4-5.1.6-1.8 1.2-4.1 1.4-5.1.3-1 4.3-16.8 9.1-34.9 4.7-18.2 8.8-33.7 9-34.5l2-8 2-8c.2-.8 1.5-6 3-11.5 4.7-17.8 6.4-23.9 9-34 4.1-15.4 8.6-32.8 8.9-34.5.2-.8 3.9-14.8 8.1-31 4.2-16.2 9.4-36 11.5-44 2.1-8 6.3-24.4 9.5-36.5 3.1-12.1 6.8-26.2 8.2-31.4 1.3-5.1 2.3-9.5 2.1-9.6-.2-.2-4.6 5.8-9.8 13.1-5.2 7.4-10.1 14.2-10.8 15.2-.7.9-14.1 19.7-29.8 41.7-15.6 22-29.7 41.7-31.2 43.7s-10.1 14.1-19.2 27l-16.5 23.3-.5-110.9-.5-110.8-27.4 63.4c-15.1 34.8-33 76.1-39.8 91.8-6.7 15.7-12.9 29.8-13.7 31.5l-1.4 3-1-4c-.6-2.2-1.3-5.7-1.6-7.8-.3-2.1-2.6-13.8-5-26-2.5-12.2-6.5-33-9-46.2-2.6-13.2-5.1-25.9-5.6-28.2-.5-2.2-1.2-5.8-1.6-8-.3-2.1-.9-5.4-1.4-7.3-.5-1.9-1.1-5.2-1.4-7.2-.3-2.1-1-5.7-1.5-8-.6-2.4-1.3-5.9-1.6-7.8-.3-1.9-2.4-12.3-4.5-23s-4.1-21.1-4.5-23c-.3-1.9-1.5-8-2.6-13.6-1.1-5.5-2.1-10.7-2.3-11.5-1.7-10.5-6.2-31.9-6.6-31.9-.3 0-1.2 3.5-1.9 7.7z"/></svg>